name analog
datacolumns 19
datarows 28
range 0.0 0.0135
endheader
time	ground_force_vx	ground_force_vy	ground_force_vz	ground_force_px	ground_force_py	ground_force_pz	l_ground_force_vx	l_ground_force_vy	l_ground_force_vz	l_ground_force_px	l_ground_force_py	l_ground_force_pz	ground_torque_x	ground_torque_y	ground_torque_z	l_ground_torque_x	l_ground_torque_y	l_ground_torque_z
0.0	-0.0	-0.0	-0.0	5.030636310577393	82.14759826660156	-542.9148559570312	11.908994674682615	-76.87320709228516	-458.7457885742188	-0.0	-0.0	-0.0	-0.0	-0.0	-0.0	84705.671875	-27678.873046875	5406.267578125
0.0005	-0.0	-0.0	-0.0	4.518763542175293	82.24797058105469	-543.881591796875	11.455574989318848	-76.45320129394531	-457.55902099609375	-0.0	-0.0	-0.0	-0.0	-0.0	-0.0	84112.46875	-27034.671875	5357.91943359375
0.001	-0.0	-0.0	-0.0	3.960234880447388	82.87913513183594	-545.4002075195312	10.678898811340332	-76.01151275634766	-455.1614379882813	-0.0	-0.0	-0.0	-0.0	-0.0	-0.0	83829.4296875	-26329.875	5045.55419921875
0.0015	-0.0	-0.0	-0.0	3.173215866088867	83.65511322021484	-546.0029296875	10.13444709777832	-75.47542572021484	-452.2837829589844	-0.0	-0.0	-0.0	-0.0	-0.0	-0.0	83228.5625	-25823.173828125	4875.44140625
0.002	-0.0	-0.0	-0.0	2.5520167350769043	84.31736755371094	-547.56787109375	9.62693214416504	-75.54861450195312	-451.0202026367188	-0.0	-0.0	-0.0	-0.0	-0.0	-0.0	82810.4609375	-25117.625	4685.85107421875
0.0025	-0.0	-0.0	-0.0	2.14105224609375	85.16017150878906	-549.6229858398438	8.84127426147461	-75.41813659667969	-448.576416015625	-0.0	-0.0	-0.0	-0.0	-0.0	-0.0	82348.6875	-24505.439453125	4477.69140625
0.003	-0.0	-0.0	-0.0	2.516741752624512	85.74345397949219	-550.8214111328125	8.380985260009766	-75.31305694580078	-446.781005859375	-0.0	-0.0	-0.0	-0.0	-0.0	-0.0	81829.1875	-23899.763671875	4413.82421875
0.0035	-0.0	-0.0	-0.0	1.3360118865966797	86.42127227783203	-552.5869750976562	7.717838287353516	-74.985107421875	-445.2192687988281	-0.0	-0.0	-0.0	-0.0	-0.0	-0.0	81769.0859375	-23596.384765625	4221.3984375
0.004	-0.0	-0.0	-0.0	1.3381576538085938	87.18619537353516	-554.0072631835938	7.342138767242432	-74.91755676269531	-444.120849609375	-0.0	-0.0	-0.0	-0.0	-0.0	-0.0	81343.2265625	-23237.720703125	4150.5029296875
0.0045000000000000005	-0.0	-0.0	-0.0	1.3011308908462524	87.5613784790039	-554.4925537109375	6.838259696960449	-75.21624755859375	-441.7288513183594	-0.0	-0.0	-0.0	-0.0	-0.0	-0.0	81068.6484375	-22881.302734375	4179.75
0.005	-0.0	-0.0	-0.0	0.9616387486457824	88.55892181396484	-556.9647216796875	6.400620460510254	-74.72015380859375	-439.744140625	-0.0	-0.0	-0.0	-0.0	-0.0	-0.0	80450.21875	-22355.521484375	4042.655517578125
0.0055	-0.0	-0.0	-0.0	0.3557373583316803	89.75431823730469	-559.0158081054688	5.725149631500244	-74.78804016113281	-437.5403747558594	-0.0	-0.0	-0.0	-0.0	-0.0	-0.0	79868.78125	-21919.3203125	3861.8740234375
0.006	-0.0	-0.0	-0.0	0.4467896223068237	90.73548889160156	-560.2152099609375	5.51385498046875	-74.59124755859375	-434.9627380371094	-0.0	-0.0	-0.0	-0.0	-0.0	-0.0	79378.5625	-21596.1328125	3941.717041015625
0.006500000000000001	-0.0	-0.0	-0.0	0.3738398849964142	91.82234954833984	-562.544189453125	5.17943286895752	-74.54350280761719	-432.598876953125	-0.0	-0.0	-0.0	-0.0	-0.0	-0.0	78947.859375	-21069.2734375	3824.984375
0.007	-0.0	-0.0	-0.0	-0.2496819496154785	92.85594177246094	-565.0178833007812	4.844834327697754	-73.99346923828125	-430.3691101074219	-0.0	-0.0	-0.0	-0.0	-0.0	-0.0	78306.765625	-20730.083984375	3822.768310546875
0.0075	-0.0	-0.0	-0.0	-0.3211380541324615	93.40856170654295	-564.7347412109375	4.844761371612549	-74.03353118896484	-427.5302734375	-0.0	-0.0	-0.0	-0.0	-0.0	-0.0	78113.421875	-20163.896484375	3747.197509765625
0.008	-0.0	-0.0	-0.0	-0.517850399017334	94.03288269042967	-567.8419799804688	4.25811767578125	-73.885498046875	-425.90826416015625	-0.0	-0.0	-0.0	-0.0	-0.0	-0.0	77631.203125	-20204.25	3626.262451171875
0.0085	-0.0	-0.0	-0.0	-0.7318640947341919	94.47766876220705	-568.3363037109375	3.952261209487915	-73.53768920898438	-424.4537353515625	-0.0	-0.0	-0.0	-0.0	-0.0	-0.0	77261.96875	-19739.58984375	3608.0146484375
0.009000000000000001	-0.0	-0.0	-0.0	-0.6254043579101562	95.15450286865234	-569.1878051757812	3.740634441375733	-73.32662963867188	-421.9691162109375	-0.0	-0.0	-0.0	-0.0	-0.0	-0.0	76720.5546875	-19522.708984375	3560.198486328125
0.0095	-0.0	-0.0	-0.0	-1.0357528924942017	95.7075424194336	-572.1470336914062	3.2673933506011963	-73.00293731689453	-420.5917663574219	-0.0	-0.0	-0.0	-0.0	-0.0	-0.0	76532.9453125	-19048.32421875	3525.35107421875
0.01	-0.0	-0.0	-0.0	-1.7122392654418943	96.22488403320312	-573.068603515625	3.282299041748047	-72.1588134765625	-419.05865478515625	-0.0	-0.0	-0.0	-0.0	-0.0	-0.0	76085.7734375	-19167.142578125	3519.084228515625
0.0105	-0.0	-0.0	-0.0	-1.8717074394226076	97.23955535888672	-576.3217163085938	3.108984470367432	-71.96287536621094	-416.1124572753906	-0.0	-0.0	-0.0	-0.0	-0.0	-0.0	75536.5546875	-18805.578125	3467.58935546875
0.011	-0.0	-0.0	-0.0	-2.2643706798553467	97.90122985839844	-578.2387084960938	3.228292465209961	-71.13739776611328	-412.9703979492188	-0.0	-0.0	-0.0	-0.0	-0.0	-0.0	75169.9140625	-18635.224609375	3466.524658203125
0.0115	-0.0	-0.0	-0.0	-2.6063497066497803	98.75882720947266	-582.1836547851562	3.405787229537964	-70.60365295410156	-410.5130004882813	-0.0	-0.0	-0.0	-0.0	-0.0	-0.0	74808.5078125	-18297.392578125	3486.02783203125
0.012	-0.0	-0.0	-0.0	-3.0137879848480225	100.09089660644533	-585.3624267578125	3.4439754486083984	-69.65113830566406	-408.3441467285156	-0.0	-0.0	-0.0	-0.0	-0.0	-0.0	74200.21875	-18414.46875	3503.1357421875
0.0125	-0.0	-0.0	-0.0	-3.247822999954224	101.14070892333984	-588.6074829101562	3.532532930374145	-69.24726104736328	-406.76165771484375	-0.0	-0.0	-0.0	-0.0	-0.0	-0.0	73820.65625	-18222.982421875	3395.260498046875
0.013000000000000001	-0.0	-0.0	-0.0	-3.866030216217041	101.92889404296876	-590.66064453125	3.7258529663085938	-68.62594604492188	-405.015869140625	-0.0	-0.0	-0.0	-0.0	-0.0	-0.0	73770.8828125	-18061.181640625	3409.17333984375
0.0135	-0.0	-0.0	-0.0	-4.209384918212891	103.33171844482422	-591.06591796875	3.4384779930114746	-67.79373931884766	-403.19635009765625	-0.0	-0.0	-0.0	-0.0	-0.0	-0.0	73313.4921875	-18125.111328125	3384.89208984375
